<mxfile host="app.diagrams.net" agent="Mozilla/5.0 (Windows NT 10.0; Win64; x64) AppleWebKit/537.36 (KHTML, like Gecko) Chrome/134.0.0.0 Safari/537.36" version="26.1.0">
  <diagram name="Page-1" id="fC_7JBFbjqWgcUhZv5UF">
    <mxGraphModel dx="1313" dy="711" grid="1" gridSize="10" guides="1" tooltips="1" connect="1" arrows="1" fold="1" page="1" pageScale="1" pageWidth="850" pageHeight="1100" math="0" shadow="0">
      <root>
        <mxCell id="0" />
        <mxCell id="1" parent="0" />
        <mxCell id="SR4lXkgio3CzSkqSdlPg-1" value="" style="rounded=0;whiteSpace=wrap;html=1;fillColor=none;dashed=1;" parent="1" vertex="1">
          <mxGeometry x="210" y="240" width="190" height="560" as="geometry" />
        </mxCell>
        <mxCell id="SR4lXkgio3CzSkqSdlPg-2" value="&lt;font style=&quot;font-size: 24px;&quot;&gt;Source&lt;/font&gt;" style="rounded=0;whiteSpace=wrap;html=1;strokeColor=none;" parent="1" vertex="1">
          <mxGeometry x="230" y="220" width="150" height="40" as="geometry" />
        </mxCell>
        <mxCell id="SR4lXkgio3CzSkqSdlPg-14" style="edgeStyle=orthogonalEdgeStyle;rounded=0;orthogonalLoop=1;jettySize=auto;html=1;entryX=0;entryY=0.5;entryDx=0;entryDy=0;" parent="1" source="SR4lXkgio3CzSkqSdlPg-3" target="SR4lXkgio3CzSkqSdlPg-10" edge="1">
          <mxGeometry relative="1" as="geometry" />
        </mxCell>
        <mxCell id="SR4lXkgio3CzSkqSdlPg-15" style="edgeStyle=orthogonalEdgeStyle;rounded=0;orthogonalLoop=1;jettySize=auto;html=1;entryX=0;entryY=0.5;entryDx=0;entryDy=0;" parent="1" source="SR4lXkgio3CzSkqSdlPg-3" target="SR4lXkgio3CzSkqSdlPg-12" edge="1">
          <mxGeometry relative="1" as="geometry" />
        </mxCell>
        <mxCell id="SR4lXkgio3CzSkqSdlPg-16" style="edgeStyle=orthogonalEdgeStyle;rounded=0;orthogonalLoop=1;jettySize=auto;html=1;entryX=0;entryY=0.5;entryDx=0;entryDy=0;" parent="1" source="SR4lXkgio3CzSkqSdlPg-3" target="SR4lXkgio3CzSkqSdlPg-13" edge="1">
          <mxGeometry relative="1" as="geometry" />
        </mxCell>
        <mxCell id="SR4lXkgio3CzSkqSdlPg-3" value="&lt;font style=&quot;font-size: 20px;&quot;&gt;&lt;b&gt;CRM&lt;/b&gt;&lt;/font&gt;" style="image;aspect=fixed;html=1;points=[];align=center;fontSize=12;image=img/lib/azure2/general/Folder_Blank.svg;" parent="1" vertex="1">
          <mxGeometry x="275" y="401.3" width="60" height="48.7" as="geometry" />
        </mxCell>
        <mxCell id="SR4lXkgio3CzSkqSdlPg-20" style="edgeStyle=orthogonalEdgeStyle;rounded=0;orthogonalLoop=1;jettySize=auto;html=1;entryX=0;entryY=0.5;entryDx=0;entryDy=0;" parent="1" source="SR4lXkgio3CzSkqSdlPg-4" target="SR4lXkgio3CzSkqSdlPg-17" edge="1">
          <mxGeometry relative="1" as="geometry" />
        </mxCell>
        <mxCell id="SR4lXkgio3CzSkqSdlPg-21" style="edgeStyle=orthogonalEdgeStyle;rounded=0;orthogonalLoop=1;jettySize=auto;html=1;" parent="1" source="SR4lXkgio3CzSkqSdlPg-4" target="SR4lXkgio3CzSkqSdlPg-18" edge="1">
          <mxGeometry relative="1" as="geometry" />
        </mxCell>
        <mxCell id="SR4lXkgio3CzSkqSdlPg-22" style="edgeStyle=orthogonalEdgeStyle;rounded=0;orthogonalLoop=1;jettySize=auto;html=1;entryX=0;entryY=0.5;entryDx=0;entryDy=0;" parent="1" source="SR4lXkgio3CzSkqSdlPg-4" target="SR4lXkgio3CzSkqSdlPg-19" edge="1">
          <mxGeometry relative="1" as="geometry" />
        </mxCell>
        <mxCell id="SR4lXkgio3CzSkqSdlPg-4" value="&lt;span style=&quot;font-size: 20px;&quot;&gt;&lt;b&gt;ERP&lt;/b&gt;&lt;/span&gt;&lt;div&gt;&lt;span style=&quot;font-size: 20px;&quot;&gt;&lt;b&gt;&lt;br&gt;&lt;/b&gt;&lt;/span&gt;&lt;/div&gt;" style="image;aspect=fixed;html=1;points=[];align=center;fontSize=12;image=img/lib/azure2/general/Folder_Blank.svg;" parent="1" vertex="1">
          <mxGeometry x="270.5" y="640" width="60" height="48.7" as="geometry" />
        </mxCell>
        <mxCell id="SR4lXkgio3CzSkqSdlPg-7" value="" style="rounded=1;whiteSpace=wrap;html=1;fillColor=#ffe6cc;strokeColor=#d79b00;fillStyle=hatch;" parent="1" vertex="1">
          <mxGeometry x="500" y="290" width="200" height="510" as="geometry" />
        </mxCell>
        <mxCell id="SR4lXkgio3CzSkqSdlPg-9" value="&lt;font style=&quot;font-size: 20px;&quot;&gt;&lt;b&gt;Bronze Layer&lt;/b&gt;&lt;/font&gt;" style="rounded=1;whiteSpace=wrap;html=1;fillColor=#ffe6cc;strokeColor=#d79b00;" parent="1" vertex="1">
          <mxGeometry x="500" y="220" width="200" height="60" as="geometry" />
        </mxCell>
        <mxCell id="Q6r9OU_ZWDhsqvg0XxRY-1" style="edgeStyle=orthogonalEdgeStyle;rounded=0;orthogonalLoop=1;jettySize=auto;html=1;entryX=0;entryY=0.5;entryDx=0;entryDy=0;" parent="1" source="SR4lXkgio3CzSkqSdlPg-10" target="LnpZp0CjmBFZS9oCVjr_-3" edge="1">
          <mxGeometry relative="1" as="geometry" />
        </mxCell>
        <mxCell id="SR4lXkgio3CzSkqSdlPg-10" value="&lt;font style=&quot;font-size: 16px;&quot;&gt;crm_sales_details&lt;/font&gt;" style="rounded=1;whiteSpace=wrap;html=1;fillColor=#ffe6cc;strokeColor=#d79b00;" parent="1" vertex="1">
          <mxGeometry x="510" y="340" width="180" height="50" as="geometry" />
        </mxCell>
        <mxCell id="Q6r9OU_ZWDhsqvg0XxRY-2" style="edgeStyle=orthogonalEdgeStyle;rounded=0;orthogonalLoop=1;jettySize=auto;html=1;" parent="1" source="SR4lXkgio3CzSkqSdlPg-12" target="LnpZp0CjmBFZS9oCVjr_-4" edge="1">
          <mxGeometry relative="1" as="geometry" />
        </mxCell>
        <mxCell id="SR4lXkgio3CzSkqSdlPg-12" value="&lt;font style=&quot;font-size: 16px;&quot;&gt;crm_cust_info&lt;/font&gt;" style="rounded=1;whiteSpace=wrap;html=1;fillColor=#ffe6cc;strokeColor=#d79b00;" parent="1" vertex="1">
          <mxGeometry x="510" y="400" width="180" height="50" as="geometry" />
        </mxCell>
        <mxCell id="Q6r9OU_ZWDhsqvg0XxRY-3" style="edgeStyle=orthogonalEdgeStyle;rounded=0;orthogonalLoop=1;jettySize=auto;html=1;entryX=0;entryY=0.5;entryDx=0;entryDy=0;" parent="1" source="SR4lXkgio3CzSkqSdlPg-13" target="LnpZp0CjmBFZS9oCVjr_-5" edge="1">
          <mxGeometry relative="1" as="geometry" />
        </mxCell>
        <mxCell id="SR4lXkgio3CzSkqSdlPg-13" value="&lt;span style=&quot;font-size: 16px;&quot;&gt;crm_prd_info&lt;/span&gt;" style="rounded=1;whiteSpace=wrap;html=1;fillColor=#ffe6cc;strokeColor=#d79b00;" parent="1" vertex="1">
          <mxGeometry x="510" y="460" width="180" height="50" as="geometry" />
        </mxCell>
        <mxCell id="LnpZp0CjmBFZS9oCVjr_-9" style="edgeStyle=orthogonalEdgeStyle;rounded=0;orthogonalLoop=1;jettySize=auto;html=1;" parent="1" source="SR4lXkgio3CzSkqSdlPg-17" target="LnpZp0CjmBFZS9oCVjr_-6" edge="1">
          <mxGeometry relative="1" as="geometry" />
        </mxCell>
        <mxCell id="SR4lXkgio3CzSkqSdlPg-17" value="&lt;span style=&quot;font-size: 16px;&quot;&gt;erp_cust_az12&lt;/span&gt;" style="rounded=1;whiteSpace=wrap;html=1;fillColor=#ffe6cc;strokeColor=#d79b00;" parent="1" vertex="1">
          <mxGeometry x="510" y="579.35" width="180" height="50" as="geometry" />
        </mxCell>
        <mxCell id="LnpZp0CjmBFZS9oCVjr_-10" style="edgeStyle=orthogonalEdgeStyle;rounded=0;orthogonalLoop=1;jettySize=auto;html=1;" parent="1" source="SR4lXkgio3CzSkqSdlPg-18" target="LnpZp0CjmBFZS9oCVjr_-7" edge="1">
          <mxGeometry relative="1" as="geometry" />
        </mxCell>
        <mxCell id="SR4lXkgio3CzSkqSdlPg-18" value="&lt;span style=&quot;font-size: 16px;&quot;&gt;erp_loc_a101&lt;/span&gt;" style="rounded=1;whiteSpace=wrap;html=1;fillColor=#ffe6cc;strokeColor=#d79b00;" parent="1" vertex="1">
          <mxGeometry x="510" y="639.35" width="180" height="50" as="geometry" />
        </mxCell>
        <mxCell id="LnpZp0CjmBFZS9oCVjr_-11" style="edgeStyle=orthogonalEdgeStyle;rounded=0;orthogonalLoop=1;jettySize=auto;html=1;" parent="1" source="SR4lXkgio3CzSkqSdlPg-19" target="LnpZp0CjmBFZS9oCVjr_-8" edge="1">
          <mxGeometry relative="1" as="geometry" />
        </mxCell>
        <mxCell id="SR4lXkgio3CzSkqSdlPg-19" value="&lt;span style=&quot;font-size: 16px;&quot;&gt;erp_px_cat_g1v2&lt;/span&gt;" style="rounded=1;whiteSpace=wrap;html=1;fillColor=#ffe6cc;strokeColor=#d79b00;" parent="1" vertex="1">
          <mxGeometry x="510" y="699.35" width="180" height="50" as="geometry" />
        </mxCell>
        <mxCell id="LnpZp0CjmBFZS9oCVjr_-1" value="" style="rounded=1;whiteSpace=wrap;html=1;fillColor=#f5f5f5;strokeColor=#666666;fillStyle=hatch;fontColor=#333333;" parent="1" vertex="1">
          <mxGeometry x="790" y="290" width="200" height="510" as="geometry" />
        </mxCell>
        <mxCell id="LnpZp0CjmBFZS9oCVjr_-2" value="&lt;font style=&quot;font-size: 20px;&quot;&gt;&lt;b&gt;Bronze Layer&lt;/b&gt;&lt;/font&gt;" style="rounded=1;whiteSpace=wrap;html=1;fillColor=#f5f5f5;strokeColor=#666666;fontColor=#333333;" parent="1" vertex="1">
          <mxGeometry x="790" y="220" width="200" height="60" as="geometry" />
        </mxCell>
        <mxCell id="Q6r9OU_ZWDhsqvg0XxRY-12" style="rounded=0;orthogonalLoop=1;jettySize=auto;html=1;entryX=0;entryY=0.25;entryDx=0;entryDy=0;" parent="1" source="LnpZp0CjmBFZS9oCVjr_-3" target="Q6r9OU_ZWDhsqvg0XxRY-8" edge="1">
          <mxGeometry relative="1" as="geometry" />
        </mxCell>
        <mxCell id="LnpZp0CjmBFZS9oCVjr_-3" value="&lt;font style=&quot;font-size: 16px;&quot;&gt;crm_sales_details&lt;/font&gt;" style="rounded=1;whiteSpace=wrap;html=1;fillColor=#f5f5f5;strokeColor=#666666;fontColor=#333333;" parent="1" vertex="1">
          <mxGeometry x="800" y="340" width="180" height="50" as="geometry" />
        </mxCell>
        <mxCell id="LnpZp0CjmBFZS9oCVjr_-4" value="&lt;font style=&quot;font-size: 16px;&quot;&gt;crm_cust_info&lt;/font&gt;" style="rounded=1;whiteSpace=wrap;html=1;fillColor=#f5f5f5;strokeColor=#666666;fontColor=#333333;" parent="1" vertex="1">
          <mxGeometry x="800" y="400" width="180" height="50" as="geometry" />
        </mxCell>
        <mxCell id="Q6r9OU_ZWDhsqvg0XxRY-16" style="rounded=0;orthogonalLoop=1;jettySize=auto;html=1;entryX=0;entryY=0.5;entryDx=0;entryDy=0;exitX=1;exitY=0.5;exitDx=0;exitDy=0;jumpStyle=gap;" parent="1" source="LnpZp0CjmBFZS9oCVjr_-5" target="Q6r9OU_ZWDhsqvg0XxRY-7" edge="1">
          <mxGeometry relative="1" as="geometry" />
        </mxCell>
        <mxCell id="LnpZp0CjmBFZS9oCVjr_-5" value="&lt;span style=&quot;font-size: 16px;&quot;&gt;crm_prd_info&lt;/span&gt;" style="rounded=1;whiteSpace=wrap;html=1;fillColor=#f5f5f5;strokeColor=#666666;fontColor=#333333;" parent="1" vertex="1">
          <mxGeometry x="800" y="460" width="180" height="50" as="geometry" />
        </mxCell>
        <mxCell id="LnpZp0CjmBFZS9oCVjr_-6" value="&lt;span style=&quot;font-size: 16px;&quot;&gt;erp_cust_az12&lt;/span&gt;" style="rounded=1;whiteSpace=wrap;html=1;fillColor=#f5f5f5;strokeColor=#666666;fontColor=#333333;" parent="1" vertex="1">
          <mxGeometry x="800" y="579.35" width="180" height="50" as="geometry" />
        </mxCell>
        <mxCell id="Q6r9OU_ZWDhsqvg0XxRY-15" style="rounded=0;orthogonalLoop=1;jettySize=auto;html=1;entryX=0;entryY=1;entryDx=0;entryDy=0;exitX=1;exitY=0.5;exitDx=0;exitDy=0;jumpStyle=gap;" parent="1" source="LnpZp0CjmBFZS9oCVjr_-7" target="Q6r9OU_ZWDhsqvg0XxRY-6" edge="1">
          <mxGeometry relative="1" as="geometry" />
        </mxCell>
        <mxCell id="LnpZp0CjmBFZS9oCVjr_-7" value="&lt;span style=&quot;font-size: 16px;&quot;&gt;erp_loc_a101&lt;/span&gt;" style="rounded=1;whiteSpace=wrap;html=1;fillColor=#f5f5f5;strokeColor=#666666;fontColor=#333333;" parent="1" vertex="1">
          <mxGeometry x="800" y="639.35" width="180" height="50" as="geometry" />
        </mxCell>
        <mxCell id="Q6r9OU_ZWDhsqvg0XxRY-17" style="rounded=0;orthogonalLoop=1;jettySize=auto;html=1;exitX=1;exitY=0.5;exitDx=0;exitDy=0;entryX=0;entryY=0.75;entryDx=0;entryDy=0;jumpStyle=gap;" parent="1" source="LnpZp0CjmBFZS9oCVjr_-8" target="Q6r9OU_ZWDhsqvg0XxRY-7" edge="1">
          <mxGeometry relative="1" as="geometry" />
        </mxCell>
        <mxCell id="LnpZp0CjmBFZS9oCVjr_-8" value="&lt;span style=&quot;font-size: 16px;&quot;&gt;erp_px_cat_g1v2&lt;/span&gt;" style="rounded=1;whiteSpace=wrap;html=1;fillColor=#f5f5f5;strokeColor=#666666;fontColor=#333333;" parent="1" vertex="1">
          <mxGeometry x="800" y="699.35" width="180" height="50" as="geometry" />
        </mxCell>
        <mxCell id="Q6r9OU_ZWDhsqvg0XxRY-4" value="" style="rounded=1;whiteSpace=wrap;html=1;fillColor=#fff2cc;strokeColor=#d6b656;fillStyle=hatch;" parent="1" vertex="1">
          <mxGeometry x="1100" y="290" width="210" height="510" as="geometry" />
        </mxCell>
        <mxCell id="Q6r9OU_ZWDhsqvg0XxRY-5" value="&lt;font style=&quot;font-size: 20px;&quot;&gt;&lt;b&gt;Bronze Layer&lt;/b&gt;&lt;/font&gt;" style="rounded=1;whiteSpace=wrap;html=1;fillColor=#fff2cc;strokeColor=#d6b656;" parent="1" vertex="1">
          <mxGeometry x="1100" y="220" width="200" height="60" as="geometry" />
        </mxCell>
        <mxCell id="Q6r9OU_ZWDhsqvg0XxRY-6" value="&lt;font style=&quot;font-size: 16px;&quot;&gt;dim_customers&lt;/font&gt;" style="rounded=1;whiteSpace=wrap;html=1;fillColor=#fff2cc;strokeColor=#d6b656;" parent="1" vertex="1">
          <mxGeometry x="1120" y="510" width="180" height="50" as="geometry" />
        </mxCell>
        <mxCell id="Q6r9OU_ZWDhsqvg0XxRY-7" value="&lt;font style=&quot;font-size: 16px;&quot;&gt;dim_products&lt;/font&gt;" style="rounded=1;whiteSpace=wrap;html=1;fillColor=#fff2cc;strokeColor=#d6b656;" parent="1" vertex="1">
          <mxGeometry x="1110" y="649.35" width="180" height="50" as="geometry" />
        </mxCell>
        <mxCell id="Q6r9OU_ZWDhsqvg0XxRY-8" value="&lt;span style=&quot;font-size: 16px;&quot;&gt;fact_sales&lt;/span&gt;" style="rounded=1;whiteSpace=wrap;html=1;fillColor=#fff2cc;strokeColor=#d6b656;" parent="1" vertex="1">
          <mxGeometry x="1120" y="380" width="180" height="50" as="geometry" />
        </mxCell>
        <mxCell id="Q6r9OU_ZWDhsqvg0XxRY-13" style="rounded=0;orthogonalLoop=1;jettySize=auto;html=1;entryX=0;entryY=0.5;entryDx=0;entryDy=0;exitX=1;exitY=0.5;exitDx=0;exitDy=0;jumpStyle=gap;" parent="1" source="LnpZp0CjmBFZS9oCVjr_-4" target="Q6r9OU_ZWDhsqvg0XxRY-6" edge="1">
          <mxGeometry relative="1" as="geometry">
            <mxPoint x="990" y="386" as="sourcePoint" />
            <mxPoint x="1130" y="403" as="targetPoint" />
          </mxGeometry>
        </mxCell>
        <mxCell id="Q6r9OU_ZWDhsqvg0XxRY-14" style="rounded=0;orthogonalLoop=1;jettySize=auto;html=1;exitX=1;exitY=0.5;exitDx=0;exitDy=0;jumpStyle=gap;" parent="1" source="LnpZp0CjmBFZS9oCVjr_-6" edge="1">
          <mxGeometry relative="1" as="geometry">
            <mxPoint x="990" y="435" as="sourcePoint" />
            <mxPoint x="1120" y="545" as="targetPoint" />
          </mxGeometry>
        </mxCell>
      </root>
    </mxGraphModel>
  </diagram>
</mxfile>
